<?xml version="1.0" encoding="utf-8"?>
<!-- Generator: Adobe Illustrator 22.1.0, SVG Export Plug-In . SVG Version: 6.00 Build 0)  -->
<svg version="1.1" id="Camada_1" xmlns="http://www.w3.org/2000/svg" xmlns:xlink="http://www.w3.org/1999/xlink" x="0px" y="0px"
	 viewBox="0 0 35 35" style="enable-background:new 0 0 35 35;" xml:space="preserve">
<style type="text/css">
	.st0{fill:#FFFFFF;}
</style>
<title>Artboard</title>
<desc>Created with Sketch.</desc>
<title>Artboard</title>
<desc>Created with Sketch.</desc>
<g id="Ressource">
	<g>
		<g transform="matrix(0.15578 0 0 0.15578 88.4878 88.4878)">
			<path class="st0" d="M-413.1-414.7c0,1.6-1.1,2.9-2.4,2.9h-3.9h-8h-58.5c-4.5,0-8.2-4.5-8.2-9.9v-10.9c0-5.4,3.7-9.9,8.2-9.9
				h58.5h8h3.9c1.3,0,2.4,1.3,2.4,2.9c0,1.6-1.1,2.9-2.4,2.9h-1.5v19.1h1.5C-414.2-417.6-413.1-416.3-413.1-414.7z M-402.7-449.1
				c0,1.6-1.1,2.9-2.4,2.9h-3.6h-8.3h-48.5c-4.2,0-7.7-4.1-7.7-9.2v-7.7c0-5.1,3.4-9.2,7.7-9.2h48.5h8.3h3.6c1.3,0,2.4,1.3,2.4,2.9
				c0,1.6-1.1,2.9-2.4,2.9h-1.2v14.5h1.2C-403.8-452-402.7-450.7-402.7-449.1z M-465.5-452h48.5h5.9v-14.5h-5.9h-48.5
				c-1.5,0-2.9,1.5-2.9,3.4v7.7C-468.4-453.5-467.1-452-465.5-452z M-399.9-507.3h-20.7h-55h-20.7c-1.3,0-2.4,1.3-2.4,2.9
				c0,1.6,1.1,2.9,2.4,2.9h2.1v24.8c-1.1,0.9-1.8,2.5-1.8,4.2c0,2.8,1.9,5.1,4.2,5.1c2.3,0,4.2-2.3,4.2-5.1c0-1.7-0.7-3.3-1.8-4.2
				v-24.8h11.3v22.8c0,1.6,1.1,2.9,2.4,2.9h55c1.3,0,2.4-1.3,2.4-2.9v-22.8h18.2c1.3,0,2.4-1.3,2.4-2.9
				C-397.6-506-398.6-507.3-399.9-507.3z"/>
		</g>
	</g>
</g>
</svg>
